<svg width="30" height="30" viewBox="0 0 30 30" fill="none" xmlns="http://www.w3.org/2000/svg">
<g id="Frame">
<path id="Vector" d="M24.375 17.8125V14.5312C24.375 13.4124 23.9305 12.3393 23.1394 11.5481C22.3482 10.757 21.2751 10.3125 20.1562 10.3125H18.2812C17.9083 10.3125 17.5506 10.1643 17.2869 9.90062C17.0232 9.6369 16.875 9.27921 16.875 8.90625V7.03125C16.875 5.91237 16.4305 4.83931 15.6394 4.04814C14.8482 3.25697 13.7751 2.8125 12.6562 2.8125H10.3125M11.25 20.625V21.5625M15 17.8125V21.5625M18.75 15V21.5625M13.125 2.8125H7.03125C6.255 2.8125 5.625 3.4425 5.625 4.21875V25.7812C5.625 26.5575 6.255 27.1875 7.03125 27.1875H22.9688C23.745 27.1875 24.375 26.5575 24.375 25.7812V14.0625C24.375 11.0788 23.1897 8.21733 21.08 6.10755C18.9702 3.99776 16.1087 2.8125 13.125 2.8125V2.8125Z" stroke="white" stroke-width="1.5" stroke-linecap="round" stroke-linejoin="round"/>
</g>
</svg>
